# xmcd
#
# Track frame offsets:
#	150
#	23025
#	45973
#	69725
#	92719
#	113106
#	135466
#	155529
#	178494
#	198996
#	218284
#	237086
#	254726
#
# Disc length: 3647 seconds
#
# Revision: 1
# Processed by: cddbd v1.5.2PL0 Copyright (c) Steve Scherf et al.
# Submitted via: EZCDAudioConverter 8.0.2.1
#
DISCID=af0e3d0d
DTITLE=Như Quỳnh - The Best Of Như Quỳnh [CD 1]
DYEAR=2005
DGENRE=Miscellaneous
TTITLE0=Như Quỳnh - Lan và Điệp 3
TTITLE1=Như Quỳnh - Chỉ có một người
TTITLE2=Như Quỳnh - Ai khổ vì ai
TTITLE3=Như Quỳnh - Đêm không trăng sao
TTITLE4=Trường Vũ - Tình cao thượng
TTITLE5=Như Quỳnh - Em chờ anh trở lại
TTITLE6=Như Quỳnh - Biết đến bao giờ
TTITLE7=Như Quỳnh, Trường Vũ - Duyên kiếp
TTITLE8=Trường Vũ - Cánh hoa yêu
TTITLE9=Như Quỳnh - Tiếng hát hậu phương
TTITLE10=Như Quỳnh - Bả mẹ quê
TTITLE11=Hợp Ca Thúy Nga Paris - LK Đi với tôi, Vui với đời nghệ sĩ
TTITLE12=Như Quỳnh - Khúc ca mùa hè
EXTD=
EXTT0=
EXTT1=
EXTT2=
EXTT3=
EXTT4=
EXTT5=
EXTT6=
EXTT7=
EXTT8=
EXTT9=
EXTT10=
EXTT11=
EXTT12=
PLAYORDER=
